# xmcd
#
# Track frame offsets:
#	150
#	12284
#	25285
#	35935
#	46665
#	59777
#	74914
#	89644
#	110951
#	121610
#	133951
#	146640
#	161811
#	178949
#
# Disc length: 2551 seconds
#
# Revision: 0
# Processed by: cddbd v1.5.2PL0 Copyright (c) Steve Scherf et al.
# Submitted via: EasyCDDAExtractor 5.0.5.1
#
DISCID=e209f50e
DTITLE=Steve Gulley - Sounds Like Home
DYEAR=2007
DGENRE=Bluegrass
TTITLE0=You Couldn't Pay Me To Care  
TTITLE1=Livin' It Down 
TTITLE2=Big Rock In The Road
TTITLE3=Little So And So
TTITLE4=It Ain't The Leavin'  
TTITLE5=Prepare To Meet Thy God
TTITLE6=My Elusive Dreams 
TTITLE7=No Not One
TTITLE8=Mountain Heart  
TTITLE9=Cheater Of The Year  
TTITLE10=Another Day
TTITLE11=Nearer My God To Thee 
TTITLE12=The Grand Tour
TTITLE13=All Alone  
EXTD=
EXTT0=
EXTT1=
EXTT2=
EXTT3=
EXTT4=
EXTT5=
EXTT6=
EXTT7=
EXTT8=
EXTT9=
EXTT10=
EXTT11=
EXTT12=
EXTT13=
PLAYORDER=
